<mxfile host="app.diagrams.net" modified="2023-02-27T04:15:33.933Z" agent="5.0 (Windows NT 10.0; Win64; x64) AppleWebKit/537.36 (KHTML, like Gecko) Chrome/110.0.0.0 Safari/537.36" etag="qEoHJzqgKSBgSS3IrwT9" version="20.8.20" type="github" pages="4">
  <diagram id="zzagM2y4zxRq1yGhmsyp" name="应用注册流程">
    <mxGraphModel dx="1434" dy="764" grid="1" gridSize="10" guides="1" tooltips="1" connect="1" arrows="1" fold="1" page="1" pageScale="1" pageWidth="827" pageHeight="1169" math="0" shadow="0">
      <root>
        <mxCell id="0" />
        <mxCell id="1" parent="0" />
        <mxCell id="WUT88LImpwBtYmgf4XU2-1" value="" style="edgeStyle=orthogonalEdgeStyle;rounded=0;orthogonalLoop=1;jettySize=auto;html=1;fontSize=16;" parent="1" source="WUT88LImpwBtYmgf4XU2-2" target="WUT88LImpwBtYmgf4XU2-4" edge="1">
          <mxGeometry relative="1" as="geometry" />
        </mxCell>
        <mxCell id="WUT88LImpwBtYmgf4XU2-2" value="开始" style="ellipse;whiteSpace=wrap;html=1;fontSize=16;" parent="1" vertex="1">
          <mxGeometry x="10" y="70" width="120" height="60" as="geometry" />
        </mxCell>
        <mxCell id="WUT88LImpwBtYmgf4XU2-3" value="" style="edgeStyle=orthogonalEdgeStyle;rounded=0;orthogonalLoop=1;jettySize=auto;html=1;fontSize=16;" parent="1" source="WUT88LImpwBtYmgf4XU2-4" target="WUT88LImpwBtYmgf4XU2-6" edge="1">
          <mxGeometry relative="1" as="geometry" />
        </mxCell>
        <mxCell id="WUT88LImpwBtYmgf4XU2-4" value="初始化基座" style="whiteSpace=wrap;html=1;fontSize=16;" parent="1" vertex="1">
          <mxGeometry x="230" y="70" width="120" height="60" as="geometry" />
        </mxCell>
        <mxCell id="WUT88LImpwBtYmgf4XU2-5" value="" style="edgeStyle=orthogonalEdgeStyle;rounded=0;orthogonalLoop=1;jettySize=auto;html=1;fontSize=16;" parent="1" source="WUT88LImpwBtYmgf4XU2-6" target="WUT88LImpwBtYmgf4XU2-8" edge="1">
          <mxGeometry relative="1" as="geometry" />
        </mxCell>
        <mxCell id="WUT88LImpwBtYmgf4XU2-6" value="通过入口文件，收集所有子应用" style="whiteSpace=wrap;html=1;fontSize=16;" parent="1" vertex="1">
          <mxGeometry x="430" y="70" width="120" height="60" as="geometry" />
        </mxCell>
        <mxCell id="WUT88LImpwBtYmgf4XU2-7" value="" style="edgeStyle=orthogonalEdgeStyle;rounded=0;orthogonalLoop=1;jettySize=auto;html=1;fontSize=16;" parent="1" source="WUT88LImpwBtYmgf4XU2-8" target="WUT88LImpwBtYmgf4XU2-11" edge="1">
          <mxGeometry relative="1" as="geometry">
            <mxPoint x="420" y="390" as="targetPoint" />
          </mxGeometry>
        </mxCell>
        <mxCell id="WUT88LImpwBtYmgf4XU2-8" value="加载入口文件" style="whiteSpace=wrap;html=1;fontSize=16;" parent="1" vertex="1">
          <mxGeometry x="620" y="70" width="120" height="60" as="geometry" />
        </mxCell>
        <mxCell id="WUT88LImpwBtYmgf4XU2-9" value="是" style="edgeStyle=orthogonalEdgeStyle;rounded=0;orthogonalLoop=1;jettySize=auto;html=1;fontSize=16;" parent="1" source="WUT88LImpwBtYmgf4XU2-11" target="WUT88LImpwBtYmgf4XU2-29" edge="1">
          <mxGeometry relative="1" as="geometry">
            <mxPoint x="680" y="360" as="targetPoint" />
          </mxGeometry>
        </mxCell>
        <mxCell id="WUT88LImpwBtYmgf4XU2-10" value="否" style="edgeStyle=orthogonalEdgeStyle;rounded=0;orthogonalLoop=1;jettySize=auto;html=1;fontSize=16;" parent="1" source="WUT88LImpwBtYmgf4XU2-11" target="WUT88LImpwBtYmgf4XU2-12" edge="1">
          <mxGeometry relative="1" as="geometry" />
        </mxCell>
        <mxCell id="WUT88LImpwBtYmgf4XU2-11" value="加载成功？" style="rhombus;whiteSpace=wrap;html=1;fontSize=16;" parent="1" vertex="1">
          <mxGeometry x="640" y="190" width="80" height="80" as="geometry" />
        </mxCell>
        <mxCell id="WUT88LImpwBtYmgf4XU2-12" value="失败处理&lt;br style=&quot;font-size: 16px;&quot;&gt;重试" style="whiteSpace=wrap;html=1;fontSize=16;" parent="1" vertex="1">
          <mxGeometry x="440" y="200" width="120" height="60" as="geometry" />
        </mxCell>
        <mxCell id="WUT88LImpwBtYmgf4XU2-23" value="结束" style="ellipse;whiteSpace=wrap;html=1;fontSize=16;" parent="1" vertex="1">
          <mxGeometry x="10" y="360" width="120" height="60" as="geometry" />
        </mxCell>
        <mxCell id="WUT88LImpwBtYmgf4XU2-31" value="" style="edgeStyle=orthogonalEdgeStyle;rounded=0;orthogonalLoop=1;jettySize=auto;html=1;fontSize=16;" parent="1" source="WUT88LImpwBtYmgf4XU2-29" target="WUT88LImpwBtYmgf4XU2-35" edge="1">
          <mxGeometry relative="1" as="geometry" />
        </mxCell>
        <mxCell id="WUT88LImpwBtYmgf4XU2-29" value="注册语言" style="verticalLabelPosition=middle;verticalAlign=middle;html=1;shape=process;whiteSpace=wrap;rounded=1;size=0.14;arcSize=6;fontSize=16;labelPosition=center;align=center;" parent="1" vertex="1">
          <mxGeometry x="630" y="360" width="100" height="60" as="geometry" />
        </mxCell>
        <mxCell id="WUT88LImpwBtYmgf4XU2-40" style="edgeStyle=orthogonalEdgeStyle;rounded=0;orthogonalLoop=1;jettySize=auto;html=1;fontSize=16;" parent="1" source="WUT88LImpwBtYmgf4XU2-30" target="WUT88LImpwBtYmgf4XU2-38" edge="1">
          <mxGeometry relative="1" as="geometry" />
        </mxCell>
        <mxCell id="WUT88LImpwBtYmgf4XU2-30" value="注册路由" style="verticalLabelPosition=middle;verticalAlign=middle;html=1;shape=process;whiteSpace=wrap;rounded=1;size=0.14;arcSize=6;fontSize=16;labelPosition=center;align=center;" parent="1" vertex="1">
          <mxGeometry x="320" y="360" width="100" height="60" as="geometry" />
        </mxCell>
        <mxCell id="WUT88LImpwBtYmgf4XU2-34" style="edgeStyle=orthogonalEdgeStyle;rounded=0;orthogonalLoop=1;jettySize=auto;html=1;fontSize=16;" parent="1" source="WUT88LImpwBtYmgf4XU2-38" target="WUT88LImpwBtYmgf4XU2-23" edge="1">
          <mxGeometry relative="1" as="geometry" />
        </mxCell>
        <mxCell id="WUT88LImpwBtYmgf4XU2-39" style="edgeStyle=orthogonalEdgeStyle;rounded=0;orthogonalLoop=1;jettySize=auto;html=1;fontSize=16;entryX=1;entryY=0.5;entryDx=0;entryDy=0;entryPerimeter=0;" parent="1" source="WUT88LImpwBtYmgf4XU2-32" target="WUT88LImpwBtYmgf4XU2-38" edge="1">
          <mxGeometry relative="1" as="geometry" />
        </mxCell>
        <mxCell id="WUT88LImpwBtYmgf4XU2-32" value="注册Store" style="verticalLabelPosition=middle;verticalAlign=middle;html=1;shape=process;whiteSpace=wrap;rounded=1;size=0.14;arcSize=6;fontSize=16;labelPosition=center;align=center;" parent="1" vertex="1">
          <mxGeometry x="320" y="270" width="100" height="60" as="geometry" />
        </mxCell>
        <mxCell id="WUT88LImpwBtYmgf4XU2-36" style="edgeStyle=orthogonalEdgeStyle;rounded=0;orthogonalLoop=1;jettySize=auto;html=1;fontSize=16;entryX=1;entryY=0.5;entryDx=0;entryDy=0;" parent="1" source="WUT88LImpwBtYmgf4XU2-35" target="WUT88LImpwBtYmgf4XU2-32" edge="1">
          <mxGeometry relative="1" as="geometry" />
        </mxCell>
        <mxCell id="WUT88LImpwBtYmgf4XU2-37" style="edgeStyle=orthogonalEdgeStyle;rounded=0;orthogonalLoop=1;jettySize=auto;html=1;fontSize=16;" parent="1" source="WUT88LImpwBtYmgf4XU2-35" target="WUT88LImpwBtYmgf4XU2-30" edge="1">
          <mxGeometry relative="1" as="geometry" />
        </mxCell>
        <mxCell id="WUT88LImpwBtYmgf4XU2-42" style="edgeStyle=orthogonalEdgeStyle;rounded=0;orthogonalLoop=1;jettySize=auto;html=1;entryX=1;entryY=0.5;entryDx=0;entryDy=0;fontSize=16;" parent="1" source="WUT88LImpwBtYmgf4XU2-35" target="WUT88LImpwBtYmgf4XU2-41" edge="1">
          <mxGeometry relative="1" as="geometry" />
        </mxCell>
        <mxCell id="WUT88LImpwBtYmgf4XU2-35" value="并行" style="verticalLabelPosition=bottom;verticalAlign=top;html=1;shape=mxgraph.flowchart.parallel_mode;pointerEvents=1;fontSize=16;" parent="1" vertex="1">
          <mxGeometry x="472.5" y="370" width="95" height="40" as="geometry" />
        </mxCell>
        <mxCell id="WUT88LImpwBtYmgf4XU2-38" value="" style="verticalLabelPosition=bottom;verticalAlign=top;html=1;shape=mxgraph.flowchart.parallel_mode;pointerEvents=1;fontSize=16;" parent="1" vertex="1">
          <mxGeometry x="170" y="370" width="95" height="40" as="geometry" />
        </mxCell>
        <mxCell id="WUT88LImpwBtYmgf4XU2-43" style="edgeStyle=orthogonalEdgeStyle;rounded=0;orthogonalLoop=1;jettySize=auto;html=1;entryX=1;entryY=0.5;entryDx=0;entryDy=0;entryPerimeter=0;fontSize=16;" parent="1" source="WUT88LImpwBtYmgf4XU2-41" target="WUT88LImpwBtYmgf4XU2-38" edge="1">
          <mxGeometry relative="1" as="geometry" />
        </mxCell>
        <mxCell id="WUT88LImpwBtYmgf4XU2-41" value="注册事件" style="verticalLabelPosition=middle;verticalAlign=middle;html=1;shape=process;whiteSpace=wrap;rounded=1;size=0.14;arcSize=6;fontSize=16;labelPosition=center;align=center;" parent="1" vertex="1">
          <mxGeometry x="320" y="440" width="100" height="60" as="geometry" />
        </mxCell>
      </root>
    </mxGraphModel>
  </diagram>
  <diagram id="eTRJVm5Wmzb5cWhin8lR" name="应用启动">
    <mxGraphModel dx="1434" dy="764" grid="1" gridSize="10" guides="1" tooltips="1" connect="1" arrows="1" fold="1" page="1" pageScale="1" pageWidth="827" pageHeight="1169" math="0" shadow="0">
      <root>
        <mxCell id="0" />
        <mxCell id="1" parent="0" />
        <mxCell id="G5ASPPplchnm8BICg7fL-2" value="pnpm bootstrap" style="edgeStyle=orthogonalEdgeStyle;rounded=0;orthogonalLoop=1;jettySize=auto;html=1;startArrow=none;fontSize=16;fontFamily=微软雅黑;" edge="1" parent="1" source="k9Kes8bOA6YWX28OGQ6p-3" target="k9Kes8bOA6YWX28OGQ6p-1">
          <mxGeometry relative="1" as="geometry">
            <mxPoint x="-20" y="240" as="targetPoint" />
          </mxGeometry>
        </mxCell>
        <mxCell id="k9Kes8bOA6YWX28OGQ6p-4" style="edgeStyle=orthogonalEdgeStyle;rounded=0;orthogonalLoop=1;jettySize=auto;html=1;fontSize=16;fontFamily=微软雅黑;" edge="1" parent="1" source="G5ASPPplchnm8BICg7fL-1" target="k9Kes8bOA6YWX28OGQ6p-3">
          <mxGeometry relative="1" as="geometry" />
        </mxCell>
        <mxCell id="G5ASPPplchnm8BICg7fL-1" value="开发" style="shape=umlActor;verticalLabelPosition=bottom;verticalAlign=top;html=1;outlineConnect=0;fontSize=16;fontFamily=微软雅黑;" vertex="1" parent="1">
          <mxGeometry x="30" y="80" width="30" height="60" as="geometry" />
        </mxCell>
        <mxCell id="k9Kes8bOA6YWX28OGQ6p-14" style="rounded=0;orthogonalLoop=1;jettySize=auto;html=1;entryX=0.25;entryY=0;entryDx=0;entryDy=0;strokeWidth=1;fontSize=16;endArrow=classic;endFill=1;dashed=1;fontFamily=微软雅黑;" edge="1" parent="1" source="k9Kes8bOA6YWX28OGQ6p-1" target="k9Kes8bOA6YWX28OGQ6p-12">
          <mxGeometry relative="1" as="geometry" />
        </mxCell>
        <mxCell id="k9Kes8bOA6YWX28OGQ6p-15" value="写入" style="edgeLabel;html=1;align=center;verticalAlign=middle;resizable=0;points=[];fontSize=16;fontFamily=微软雅黑;" vertex="1" connectable="0" parent="k9Kes8bOA6YWX28OGQ6p-14">
          <mxGeometry x="0.1826" y="-3" relative="1" as="geometry">
            <mxPoint as="offset" />
          </mxGeometry>
        </mxCell>
        <mxCell id="k9Kes8bOA6YWX28OGQ6p-1" value="执行 bootstrap.sh" style="rounded=0;whiteSpace=wrap;html=1;fontSize=16;fontFamily=微软雅黑;" vertex="1" parent="1">
          <mxGeometry x="130" y="210" width="120" height="60" as="geometry" />
        </mxCell>
        <mxCell id="k9Kes8bOA6YWX28OGQ6p-3" value="appName" style="verticalLabelPosition=middle;verticalAlign=middle;html=1;shape=trapezoid;perimeter=trapezoidPerimeter;whiteSpace=wrap;size=0.23;arcSize=10;flipV=1;labelPosition=center;align=center;fontSize=16;fontFamily=微软雅黑;" vertex="1" parent="1">
          <mxGeometry x="125" y="75" width="130" height="70" as="geometry" />
        </mxCell>
        <mxCell id="k9Kes8bOA6YWX28OGQ6p-8" value="启动" style="edgeStyle=orthogonalEdgeStyle;rounded=0;orthogonalLoop=1;jettySize=auto;html=1;fontSize=16;fontFamily=微软雅黑;" edge="1" parent="1" source="k9Kes8bOA6YWX28OGQ6p-1" target="k9Kes8bOA6YWX28OGQ6p-7">
          <mxGeometry relative="1" as="geometry">
            <mxPoint x="190" y="390" as="sourcePoint" />
          </mxGeometry>
        </mxCell>
        <mxCell id="k9Kes8bOA6YWX28OGQ6p-19" style="edgeStyle=none;rounded=0;orthogonalLoop=1;jettySize=auto;html=1;strokeWidth=1;fontSize=16;endArrow=classic;endFill=1;fontFamily=微软雅黑;" edge="1" parent="1" source="k9Kes8bOA6YWX28OGQ6p-7" target="k9Kes8bOA6YWX28OGQ6p-16">
          <mxGeometry relative="1" as="geometry" />
        </mxCell>
        <mxCell id="k9Kes8bOA6YWX28OGQ6p-7" value="对应的应用" style="whiteSpace=wrap;html=1;rounded=0;fontSize=16;fontFamily=微软雅黑;" vertex="1" parent="1">
          <mxGeometry x="130" y="350" width="120" height="60" as="geometry" />
        </mxCell>
        <mxCell id="k9Kes8bOA6YWX28OGQ6p-10" style="edgeStyle=orthogonalEdgeStyle;rounded=0;orthogonalLoop=1;jettySize=auto;html=1;endArrow=none;endFill=0;strokeWidth=2;fontSize=16;fontFamily=微软雅黑;" edge="1" parent="1" source="k9Kes8bOA6YWX28OGQ6p-9" target="k9Kes8bOA6YWX28OGQ6p-1">
          <mxGeometry relative="1" as="geometry" />
        </mxCell>
        <mxCell id="k9Kes8bOA6YWX28OGQ6p-9" value="&lt;p style=&quot;line-height: 160%; font-size: 16px;&quot;&gt;获取本机 IP&lt;br style=&quot;font-size: 16px;&quot;&gt;生成 VUE_APP_MICRO&lt;br style=&quot;font-size: 16px;&quot;&gt;给子应用分配端口 APP_PORT&lt;br style=&quot;font-size: 16px;&quot;&gt;拼接 pnpm --filter=appName run dev&lt;/p&gt;" style="strokeWidth=2;html=1;shape=mxgraph.flowchart.annotation_2;align=left;labelPosition=right;pointerEvents=1;fontSize=16;fontFamily=微软雅黑;" vertex="1" parent="1">
          <mxGeometry x="290" y="190" width="50" height="100" as="geometry" />
        </mxCell>
        <mxCell id="k9Kes8bOA6YWX28OGQ6p-12" value=".env.local" style="shape=image;html=1;verticalAlign=top;verticalLabelPosition=bottom;labelBackgroundColor=#ffffff;imageAspect=0;aspect=fixed;image=https://cdn3.iconfinder.com/data/icons/user-interface-169/32/dicument-128.png;fontSize=16;fontFamily=微软雅黑;" vertex="1" parent="1">
          <mxGeometry x="350" y="355" width="50" height="50" as="geometry" />
        </mxCell>
        <mxCell id="k9Kes8bOA6YWX28OGQ6p-25" style="edgeStyle=none;rounded=0;orthogonalLoop=1;jettySize=auto;html=1;strokeWidth=1;fontSize=16;endArrow=classic;endFill=1;fontFamily=微软雅黑;" edge="1" parent="1" source="k9Kes8bOA6YWX28OGQ6p-16" target="k9Kes8bOA6YWX28OGQ6p-26">
          <mxGeometry relative="1" as="geometry">
            <mxPoint x="190" y="590" as="targetPoint" />
          </mxGeometry>
        </mxCell>
        <mxCell id="k9Kes8bOA6YWX28OGQ6p-16" value="接入应用列表" style="whiteSpace=wrap;html=1;fontSize=16;fontFamily=微软雅黑;rounded=0;" vertex="1" parent="1">
          <mxGeometry x="130" y="460" width="120" height="60" as="geometry" />
        </mxCell>
        <mxCell id="k9Kes8bOA6YWX28OGQ6p-20" value="" style="shape=image;html=1;verticalAlign=top;verticalLabelPosition=bottom;labelBackgroundColor=#ffffff;imageAspect=0;aspect=fixed;image=https://cdn4.iconfinder.com/data/icons/ionicons/512/icon-ios7-plus-empty-128.png;fontSize=16;fontFamily=微软雅黑;" vertex="1" parent="1">
          <mxGeometry x="270" y="350" width="60" height="60" as="geometry" />
        </mxCell>
        <mxCell id="k9Kes8bOA6YWX28OGQ6p-21" value="" style="shape=singleArrow;whiteSpace=wrap;html=1;arrowWidth=0.4;arrowSize=0.4;fontSize=16;verticalAlign=top;labelBackgroundColor=#ffffff;fontFamily=微软雅黑;" vertex="1" parent="1">
          <mxGeometry x="420" y="364" width="40" height="32" as="geometry" />
        </mxCell>
        <mxCell id="k9Kes8bOA6YWX28OGQ6p-22" value="&lt;span style=&quot;color: rgb(0, 0, 0); font-size: 16px; font-style: normal; font-variant-ligatures: normal; font-variant-caps: normal; letter-spacing: normal; orphans: 2; text-align: center; text-indent: 0px; text-transform: none; widows: 2; word-spacing: 0px; -webkit-text-stroke-width: 0px; background-color: rgb(255, 255, 255); text-decoration-thickness: initial; text-decoration-style: initial; text-decoration-color: initial; float: none; display: inline !important;&quot;&gt;https://ip:port/&lt;br style=&quot;font-size: 16px;&quot;&gt;&lt;/span&gt;" style="text;whiteSpace=wrap;html=1;fontSize=16;fontStyle=1;fontFamily=微软雅黑;" vertex="1" parent="1">
          <mxGeometry x="480" y="366" width="130" height="28" as="geometry" />
        </mxCell>
        <mxCell id="k9Kes8bOA6YWX28OGQ6p-26" value="结束" style="ellipse;whiteSpace=wrap;html=1;fontSize=16;fontFamily=微软雅黑;" vertex="1" parent="1">
          <mxGeometry x="145" y="554.5" width="90" height="60" as="geometry" />
        </mxCell>
      </root>
    </mxGraphModel>
  </diagram>
  <diagram id="CoITRjyVxTSdQ1MjfuBr" name="动态路由">
    <mxGraphModel dx="1434" dy="764" grid="1" gridSize="10" guides="1" tooltips="1" connect="1" arrows="1" fold="1" page="1" pageScale="1" pageWidth="827" pageHeight="1169" math="0" shadow="0">
      <root>
        <mxCell id="0" />
        <mxCell id="1" parent="0" />
        <mxCell id="h7p6sk4v2OCf2TAk3III-1" value="" style="edgeStyle=orthogonalEdgeStyle;rounded=0;orthogonalLoop=1;jettySize=auto;html=1;fontSize=16;" edge="1" parent="1" source="h7p6sk4v2OCf2TAk3III-2" target="h7p6sk4v2OCf2TAk3III-4">
          <mxGeometry relative="1" as="geometry" />
        </mxCell>
        <mxCell id="h7p6sk4v2OCf2TAk3III-2" value="开始" style="ellipse;whiteSpace=wrap;html=1;fontSize=16;" vertex="1" parent="1">
          <mxGeometry x="60" y="70" width="120" height="60" as="geometry" />
        </mxCell>
        <mxCell id="h7p6sk4v2OCf2TAk3III-3" value="" style="edgeStyle=orthogonalEdgeStyle;rounded=0;orthogonalLoop=1;jettySize=auto;html=1;fontSize=16;" edge="1" parent="1" source="h7p6sk4v2OCf2TAk3III-4" target="h7p6sk4v2OCf2TAk3III-6">
          <mxGeometry relative="1" as="geometry" />
        </mxCell>
        <mxCell id="h7p6sk4v2OCf2TAk3III-4" value="应用注册" style="verticalLabelPosition=middle;verticalAlign=middle;html=1;shape=process;whiteSpace=wrap;rounded=1;size=0.14;arcSize=6;fontFamily=Helvetica;fontSize=16;fontColor=default;align=center;strokeColor=default;fillColor=default;labelPosition=center;" vertex="1" parent="1">
          <mxGeometry x="260" y="70" width="120" height="60" as="geometry" />
        </mxCell>
        <mxCell id="h7p6sk4v2OCf2TAk3III-5" value="" style="edgeStyle=orthogonalEdgeStyle;rounded=0;orthogonalLoop=1;jettySize=auto;html=1;fontSize=16;" edge="1" parent="1" source="h7p6sk4v2OCf2TAk3III-6" target="h7p6sk4v2OCf2TAk3III-8">
          <mxGeometry relative="1" as="geometry" />
        </mxCell>
        <mxCell id="h7p6sk4v2OCf2TAk3III-6" value="路由&lt;br style=&quot;font-size: 16px;&quot;&gt;/appName/xxx/index" style="whiteSpace=wrap;html=1;fontSize=16;" vertex="1" parent="1">
          <mxGeometry x="440" y="70" width="120" height="60" as="geometry" />
        </mxCell>
        <mxCell id="h7p6sk4v2OCf2TAk3III-7" value="" style="edgeStyle=orthogonalEdgeStyle;rounded=0;orthogonalLoop=1;jettySize=auto;html=1;fontSize=16;" edge="1" parent="1" source="h7p6sk4v2OCf2TAk3III-8" target="h7p6sk4v2OCf2TAk3III-11">
          <mxGeometry relative="1" as="geometry">
            <mxPoint x="420" y="390" as="targetPoint" />
          </mxGeometry>
        </mxCell>
        <mxCell id="h7p6sk4v2OCf2TAk3III-8" value="根据路由匹配&lt;br style=&quot;font-size: 16px;&quot;&gt;/appName" style="whiteSpace=wrap;html=1;fontSize=16;" vertex="1" parent="1">
          <mxGeometry x="620" y="70" width="120" height="60" as="geometry" />
        </mxCell>
        <mxCell id="h7p6sk4v2OCf2TAk3III-9" value="成功" style="edgeStyle=orthogonalEdgeStyle;rounded=0;orthogonalLoop=1;jettySize=auto;html=1;fontSize=16;" edge="1" parent="1" source="h7p6sk4v2OCf2TAk3III-11" target="h7p6sk4v2OCf2TAk3III-15">
          <mxGeometry relative="1" as="geometry">
            <mxPoint x="420" y="530" as="targetPoint" />
          </mxGeometry>
        </mxCell>
        <mxCell id="h7p6sk4v2OCf2TAk3III-10" value="失败" style="edgeStyle=orthogonalEdgeStyle;rounded=0;orthogonalLoop=1;jettySize=auto;html=1;fontSize=16;" edge="1" parent="1" source="h7p6sk4v2OCf2TAk3III-11" target="h7p6sk4v2OCf2TAk3III-12">
          <mxGeometry relative="1" as="geometry" />
        </mxCell>
        <mxCell id="h7p6sk4v2OCf2TAk3III-11" value="匹配结果" style="rhombus;whiteSpace=wrap;html=1;fontSize=16;" vertex="1" parent="1">
          <mxGeometry x="640" y="190" width="80" height="80" as="geometry" />
        </mxCell>
        <mxCell id="h7p6sk4v2OCf2TAk3III-12" value="失败处理&lt;br style=&quot;font-size: 16px;&quot;&gt;回到首页" style="whiteSpace=wrap;html=1;fontSize=16;" vertex="1" parent="1">
          <mxGeometry x="440" y="200" width="120" height="60" as="geometry" />
        </mxCell>
        <mxCell id="h7p6sk4v2OCf2TAk3III-13" value="是" style="edgeStyle=orthogonalEdgeStyle;rounded=0;orthogonalLoop=1;jettySize=auto;html=1;fontSize=16;entryX=1;entryY=0.5;entryDx=0;entryDy=0;exitX=0.5;exitY=1;exitDx=0;exitDy=0;" edge="1" parent="1" source="h7p6sk4v2OCf2TAk3III-15" target="h7p6sk4v2OCf2TAk3III-20">
          <mxGeometry relative="1" as="geometry">
            <mxPoint x="680" y="480" as="targetPoint" />
          </mxGeometry>
        </mxCell>
        <mxCell id="h7p6sk4v2OCf2TAk3III-14" value="否" style="edgeStyle=orthogonalEdgeStyle;rounded=0;orthogonalLoop=1;jettySize=auto;html=1;fontSize=16;" edge="1" parent="1" source="h7p6sk4v2OCf2TAk3III-15" target="h7p6sk4v2OCf2TAk3III-18">
          <mxGeometry relative="1" as="geometry">
            <mxPoint x="520" y="370" as="targetPoint" />
          </mxGeometry>
        </mxCell>
        <mxCell id="h7p6sk4v2OCf2TAk3III-15" value="检查该路由模块是否已经加载" style="rhombus;whiteSpace=wrap;html=1;fontSize=16;" vertex="1" parent="1">
          <mxGeometry x="640" y="360" width="80" height="80" as="geometry" />
        </mxCell>
        <mxCell id="h7p6sk4v2OCf2TAk3III-16" value="成功" style="edgeStyle=orthogonalEdgeStyle;rounded=0;orthogonalLoop=1;jettySize=auto;html=1;fontSize=16;" edge="1" parent="1" source="h7p6sk4v2OCf2TAk3III-18" target="h7p6sk4v2OCf2TAk3III-20">
          <mxGeometry relative="1" as="geometry" />
        </mxCell>
        <mxCell id="h7p6sk4v2OCf2TAk3III-17" value="失败" style="edgeStyle=orthogonalEdgeStyle;rounded=0;orthogonalLoop=1;jettySize=auto;html=1;fontSize=16;" edge="1" parent="1" source="h7p6sk4v2OCf2TAk3III-18" target="h7p6sk4v2OCf2TAk3III-26">
          <mxGeometry relative="1" as="geometry" />
        </mxCell>
        <mxCell id="h7p6sk4v2OCf2TAk3III-18" value="异步请求该应用的代码入口 JS 地址" style="rhombus;whiteSpace=wrap;html=1;fontSize=16;" vertex="1" parent="1">
          <mxGeometry x="410" y="330" width="80" height="80" as="geometry" />
        </mxCell>
        <mxCell id="h7p6sk4v2OCf2TAk3III-19" value="" style="edgeStyle=orthogonalEdgeStyle;rounded=0;orthogonalLoop=1;jettySize=auto;html=1;fontSize=16;" edge="1" parent="1" source="h7p6sk4v2OCf2TAk3III-20" target="h7p6sk4v2OCf2TAk3III-22">
          <mxGeometry relative="1" as="geometry" />
        </mxCell>
        <mxCell id="h7p6sk4v2OCf2TAk3III-20" value="获取应用模块&lt;br style=&quot;font-size: 16px;&quot;&gt;返回路由控制" style="whiteSpace=wrap;html=1;fontSize=16;" vertex="1" parent="1">
          <mxGeometry x="390" y="460" width="120" height="60" as="geometry" />
        </mxCell>
        <mxCell id="h7p6sk4v2OCf2TAk3III-21" value="" style="edgeStyle=orthogonalEdgeStyle;rounded=0;orthogonalLoop=1;jettySize=auto;html=1;fontSize=16;" edge="1" parent="1" source="h7p6sk4v2OCf2TAk3III-22" target="h7p6sk4v2OCf2TAk3III-23">
          <mxGeometry relative="1" as="geometry" />
        </mxCell>
        <mxCell id="h7p6sk4v2OCf2TAk3III-22" value="显示应用页面" style="whiteSpace=wrap;html=1;fontSize=16;" vertex="1" parent="1">
          <mxGeometry x="220" y="460" width="120" height="60" as="geometry" />
        </mxCell>
        <mxCell id="h7p6sk4v2OCf2TAk3III-23" value="结束" style="ellipse;whiteSpace=wrap;html=1;fontSize=16;" vertex="1" parent="1">
          <mxGeometry x="60" y="460" width="120" height="60" as="geometry" />
        </mxCell>
        <mxCell id="h7p6sk4v2OCf2TAk3III-24" style="edgeStyle=orthogonalEdgeStyle;rounded=0;orthogonalLoop=1;jettySize=auto;html=1;entryX=0.5;entryY=0;entryDx=0;entryDy=0;fontSize=16;exitX=0.5;exitY=0;exitDx=0;exitDy=0;" edge="1" parent="1" source="h7p6sk4v2OCf2TAk3III-26" target="h7p6sk4v2OCf2TAk3III-18">
          <mxGeometry relative="1" as="geometry" />
        </mxCell>
        <mxCell id="h7p6sk4v2OCf2TAk3III-25" value="计数" style="edgeLabel;html=1;align=center;verticalAlign=middle;resizable=0;points=[];fontSize=16;" vertex="1" connectable="0" parent="h7p6sk4v2OCf2TAk3III-24">
          <mxGeometry x="-0.0667" y="3" relative="1" as="geometry">
            <mxPoint as="offset" />
          </mxGeometry>
        </mxCell>
        <mxCell id="h7p6sk4v2OCf2TAk3III-26" value="重新请求" style="whiteSpace=wrap;html=1;fontSize=16;" vertex="1" parent="1">
          <mxGeometry x="220" y="340" width="120" height="60" as="geometry" />
        </mxCell>
      </root>
    </mxGraphModel>
  </diagram>
  <diagram id="ngN_HKfz0EcpP66IgR-g" name="动态状态管理">
    <mxGraphModel dx="1434" dy="764" grid="1" gridSize="10" guides="1" tooltips="1" connect="1" arrows="1" fold="1" page="1" pageScale="1" pageWidth="827" pageHeight="1169" math="0" shadow="0">
      <root>
        <mxCell id="0" />
        <mxCell id="1" parent="0" />
        <mxCell id="1he4u8YpgkceC310jECo-1" value="" style="edgeStyle=orthogonalEdgeStyle;rounded=0;orthogonalLoop=1;jettySize=auto;html=1;fontSize=16;" edge="1" parent="1" source="1he4u8YpgkceC310jECo-2" target="1he4u8YpgkceC310jECo-22">
          <mxGeometry relative="1" as="geometry">
            <mxPoint x="260" y="100" as="targetPoint" />
          </mxGeometry>
        </mxCell>
        <mxCell id="1he4u8YpgkceC310jECo-2" value="开始" style="ellipse;whiteSpace=wrap;html=1;fontSize=16;" vertex="1" parent="1">
          <mxGeometry x="60" y="70" width="120" height="60" as="geometry" />
        </mxCell>
        <mxCell id="1he4u8YpgkceC310jECo-3" value="" style="edgeStyle=orthogonalEdgeStyle;rounded=0;orthogonalLoop=1;jettySize=auto;html=1;fontSize=16;" edge="1" parent="1" source="1he4u8YpgkceC310jECo-22" target="1he4u8YpgkceC310jECo-5">
          <mxGeometry relative="1" as="geometry">
            <mxPoint x="380" y="100" as="sourcePoint" />
          </mxGeometry>
        </mxCell>
        <mxCell id="1he4u8YpgkceC310jECo-4" value="" style="edgeStyle=orthogonalEdgeStyle;rounded=0;orthogonalLoop=1;jettySize=auto;html=1;fontSize=16;" edge="1" parent="1" source="1he4u8YpgkceC310jECo-5" target="1he4u8YpgkceC310jECo-7">
          <mxGeometry relative="1" as="geometry" />
        </mxCell>
        <mxCell id="1he4u8YpgkceC310jECo-5" value="路由&lt;br style=&quot;font-size: 16px;&quot;&gt;/appName/xxx/index" style="whiteSpace=wrap;html=1;fontSize=16;" vertex="1" parent="1">
          <mxGeometry x="440" y="70" width="120" height="60" as="geometry" />
        </mxCell>
        <mxCell id="1he4u8YpgkceC310jECo-6" value="" style="edgeStyle=orthogonalEdgeStyle;rounded=0;orthogonalLoop=1;jettySize=auto;html=1;fontSize=16;" edge="1" parent="1" source="1he4u8YpgkceC310jECo-7" target="1he4u8YpgkceC310jECo-21">
          <mxGeometry relative="1" as="geometry" />
        </mxCell>
        <mxCell id="1he4u8YpgkceC310jECo-7" value="根据路由匹配&lt;br style=&quot;font-size: 16px;&quot;&gt;/appName" style="whiteSpace=wrap;html=1;fontSize=16;" vertex="1" parent="1">
          <mxGeometry x="620" y="70" width="120" height="60" as="geometry" />
        </mxCell>
        <mxCell id="1he4u8YpgkceC310jECo-8" value="是" style="edgeStyle=orthogonalEdgeStyle;rounded=0;orthogonalLoop=1;jettySize=auto;html=1;fontSize=16;" edge="1" parent="1" source="1he4u8YpgkceC310jECo-10" target="1he4u8YpgkceC310jECo-19">
          <mxGeometry relative="1" as="geometry">
            <mxPoint x="680" y="430" as="targetPoint" />
          </mxGeometry>
        </mxCell>
        <mxCell id="1he4u8YpgkceC310jECo-9" value="否" style="edgeStyle=orthogonalEdgeStyle;rounded=0;orthogonalLoop=1;jettySize=auto;html=1;fontSize=16;" edge="1" parent="1" source="1he4u8YpgkceC310jECo-10" target="1he4u8YpgkceC310jECo-12">
          <mxGeometry relative="1" as="geometry" />
        </mxCell>
        <mxCell id="1he4u8YpgkceC310jECo-10" value="存在 Store？" style="rhombus;whiteSpace=wrap;html=1;fontSize=16;" vertex="1" parent="1">
          <mxGeometry x="640" y="267" width="80" height="80" as="geometry" />
        </mxCell>
        <mxCell id="1he4u8YpgkceC310jECo-11" style="edgeStyle=orthogonalEdgeStyle;rounded=0;orthogonalLoop=1;jettySize=auto;html=1;fontSize=16;" edge="1" parent="1" source="1he4u8YpgkceC310jECo-12" target="1he4u8YpgkceC310jECo-17">
          <mxGeometry relative="1" as="geometry" />
        </mxCell>
        <mxCell id="1he4u8YpgkceC310jECo-12" value="不做任何处理" style="whiteSpace=wrap;html=1;fontSize=16;" vertex="1" parent="1">
          <mxGeometry x="440" y="277" width="120" height="60" as="geometry" />
        </mxCell>
        <mxCell id="1he4u8YpgkceC310jECo-13" value="是" style="edgeStyle=orthogonalEdgeStyle;rounded=0;orthogonalLoop=1;jettySize=auto;html=1;fontSize=16;entryX=1;entryY=0.5;entryDx=0;entryDy=0;" edge="1" parent="1" source="1he4u8YpgkceC310jECo-19" target="1he4u8YpgkceC310jECo-15">
          <mxGeometry relative="1" as="geometry">
            <mxPoint x="680" y="550" as="targetPoint" />
            <mxPoint x="680" y="510" as="sourcePoint" />
          </mxGeometry>
        </mxCell>
        <mxCell id="1he4u8YpgkceC310jECo-14" value="" style="edgeStyle=orthogonalEdgeStyle;rounded=0;orthogonalLoop=1;jettySize=auto;html=1;fontSize=16;" edge="1" parent="1" source="1he4u8YpgkceC310jECo-15" target="1he4u8YpgkceC310jECo-17">
          <mxGeometry relative="1" as="geometry" />
        </mxCell>
        <mxCell id="1he4u8YpgkceC310jECo-15" value="获取Store&lt;br style=&quot;font-size: 16px;&quot;&gt;返回数据" style="whiteSpace=wrap;html=1;fontSize=16;" vertex="1" parent="1">
          <mxGeometry x="390" y="415" width="120" height="60" as="geometry" />
        </mxCell>
        <mxCell id="1he4u8YpgkceC310jECo-16" value="" style="edgeStyle=orthogonalEdgeStyle;rounded=0;orthogonalLoop=1;jettySize=auto;html=1;fontSize=16;" edge="1" parent="1" source="1he4u8YpgkceC310jECo-17" target="1he4u8YpgkceC310jECo-18">
          <mxGeometry relative="1" as="geometry" />
        </mxCell>
        <mxCell id="1he4u8YpgkceC310jECo-17" value="显示应用页面" style="whiteSpace=wrap;html=1;fontSize=16;" vertex="1" parent="1">
          <mxGeometry x="220" y="415" width="120" height="60" as="geometry" />
        </mxCell>
        <mxCell id="1he4u8YpgkceC310jECo-18" value="结束" style="ellipse;whiteSpace=wrap;html=1;fontSize=16;" vertex="1" parent="1">
          <mxGeometry x="60" y="415" width="120" height="60" as="geometry" />
        </mxCell>
        <mxCell id="1he4u8YpgkceC310jECo-19" value="将子应用&lt;br&gt;&amp;nbsp;Store 激活" style="html=1;fontSize=16;" vertex="1" parent="1">
          <mxGeometry x="620" y="415" width="120" height="60" as="geometry" />
        </mxCell>
        <mxCell id="1he4u8YpgkceC310jECo-20" value="" style="edgeStyle=orthogonalEdgeStyle;rounded=0;orthogonalLoop=1;jettySize=auto;html=1;fontSize=16;" edge="1" parent="1" source="1he4u8YpgkceC310jECo-21" target="1he4u8YpgkceC310jECo-10">
          <mxGeometry relative="1" as="geometry" />
        </mxCell>
        <mxCell id="1he4u8YpgkceC310jECo-21" value="将上一个子应用&lt;br&gt;&amp;nbsp;Store 失活" style="html=1;fontSize=16;" vertex="1" parent="1">
          <mxGeometry x="620" y="170" width="120" height="60" as="geometry" />
        </mxCell>
        <mxCell id="1he4u8YpgkceC310jECo-22" value="应用注册" style="verticalLabelPosition=middle;verticalAlign=middle;html=1;shape=process;whiteSpace=wrap;rounded=1;size=0.14;arcSize=6;fontSize=16;labelPosition=center;align=center;" vertex="1" parent="1">
          <mxGeometry x="260" y="70" width="100" height="60" as="geometry" />
        </mxCell>
      </root>
    </mxGraphModel>
  </diagram>
</mxfile>
